<svg id="result-svg" width="1000" height="470" viewBox="0 0 1000 470" fill="none" xmlns="http://www.w3.org/2000/svg"><svg data-reactroot="" xmlns="http://www.w3.org/2000/svg" fill="none" viewBox="0 0 495 82" height="82" width="495" x="0" y="0"><rect stroke="#E4E2E2" fill="#FFFEFE" rx="4.5" height="81" width="494" y="0.5" x="0.5"></rect><text y="36" x="25"><tspan font-size="18px" font-weight="600" font-family="Segoe UI" fill="#2F80ED" y="36" x="25">Programming languages I code in</tspan><tspan font-size="14px" font-weight="400" font-family="Segoe UI" fill="#333" y="60" x="25">Test</tspan></text></svg><svg data-reactroot="" xmlns="http://www.w3.org/2000/svg" fill="none" viewBox="0 0 495 0" height="0" width="495" x="500" y="0"><rect stroke="#E4E2E2" fill="#FFFEFE" rx="4.5" height="-1" width="494" y="0.5" x="0.5"></rect></svg><svg data-reactroot="" xmlns="http://www.w3.org/2000/svg" fill="none" viewBox="0 0 495 0" height="0" width="495" x="0" y="82"><rect stroke="#E4E2E2" fill="#FFFEFE" rx="4.5" height="-1" width="494" y="0.5" x="0.5"></rect><g></g><g></g></svg><svg data-reactroot="" xmlns="http://www.w3.org/2000/svg" fill="none" viewBox="0 0 495 0" height="0" width="495" x="500" y="82"><rect stroke="#E4E2E2" fill="#FFFEFE" rx="4.5" height="-1" width="494" y="0.5" x="0.5"></rect><g></g><g></g></svg><svg data-reactroot="" xmlns="http://www.w3.org/2000/svg" fill="none" viewBox="0 0 495 0" height="0" width="495" x="0" y="82"><rect stroke="#E4E2E2" fill="#FFFEFE" rx="4.5" height="-1" width="494" y="0.5" x="0.5"></rect></svg><svg data-reactroot="" xmlns="http://www.w3.org/2000/svg" fill="none" viewBox="0 0 495 0" height="0" width="495" x="500" y="82"><rect stroke="#E4E2E2" fill="#FFFEFE" rx="4.5" height="-1" width="494" y="0.5" x="0.5"></rect><g></g><g></g><g></g></svg></svg>